<?xml version="1.0" encoding="utf-8"?>
<!DOCTYPE svg PUBLIC "-//W3C//DTD SVG 1.1//EN" "http://www.w3.org/Graphics/SVG/1.1/DTD/svg11.dtd">
<!-- exported from Silhouette Studio® Business Edition V4.3.273ssbe -->
<svg version="1.1" xmlns="http://www.w3.org/2000/svg" xmlns:xlink="http://www.w3.org/1999/xlink" width="304.8mm" height="304.8mm" viewBox="0 0 304.8 304.8">
<defs/>
<path d="M 32.2035 265.2384 C 32.2035 265.1829 32.24891 265.1375 32.30441 265.1375 C 32.35992 265.1375 32.40533 265.1829 32.40533 265.2384 C 32.40533 265.2939 32.35992 265.3392 32.30441 265.3392 C 32.24891 265.3392 32.2035 265.2939 32.2035 265.2384 Z" fill="#000000" fill-opacity="1" stroke="#FF0000" stroke-opacity="1" stroke-width="0.1" stroke-linecap="round" stroke-linejoin="round"/>
<path d="M 32.8281 265.1761 C 32.91792 265.0863 33.04118 265.0436 33.10201 265.0811 C 33.30239 265.2049 33.2174 265.3393 32.9387 265.3393 C 32.68633 265.3393 32.67762 265.3264 32.8281 265.1761 Z" fill="#000000" fill-opacity="1" stroke="#FF0000" stroke-opacity="1" stroke-width="0.1" stroke-linecap="round" stroke-linejoin="round"/>
<path d="M 194.6589 106.9029 C 195.1066 106.8327 195.0075 106.7373 195.0556 106.6077 C 195.0913 106.5116 195.1215 89.79784 195.1227 69.46588 C 195.125 33.78278 195.1317 32.48372 195.3174 32.06719 C 195.5523 31.54028 195.8775 31.17474 196.4174 30.83096 C 196.9999 30.45998 198.3337 30.38645 198.9926 30.68898 C 199.6158 30.97512 200.0943 31.41142 200.371 31.9459 L 200.6013 32.39082 L 200.628 69.51248 L 200.6546 106.6341 L 200.8738 106.8391 C 201.0881 107.0395 201.9749 107.0452 240.7267 107.098 C 269.8832 107.1377 280.4295 107.1842 280.6216 107.2739 C 280.7653 107.341 281.1002 107.6361 281.3659 107.9296 C 282.7346 109.4418 282.1328 112.0839 280.2908 112.6492 C 279.8062 112.7979 275.5646 112.8158 240.488 112.8172 C 209.0445 112.8185 201.1757 112.846 200.9667 112.9553 L 200.7057 113.0917 L 200.6794 151.8325 C 200.6536 189.8464 200.6569 190.578 200.8529 190.828 L 201.0526 191.0829 L 240.6543 191.1369 L 280.256 191.1908 L 280.7375 191.4834 C 281.4821 191.9356 281.8197 192.4043 282.0253 193.2712 C 282.2 194.008 282.199 194.0516 281.9899 194.8216 C 281.7621 195.6604 281.4758 196.0229 280.555 196.6387 L 280.1516 196.9085 L 240.519 196.9364 C 207.6209 196.9596 200.8666 196.9888 200.7706 197.1084 C 200.6866 197.2129 200.6476 207.4213 200.6281 234.407 L 200.6013 271.5617 L 200.3194 272.0572 C 199.7984 272.9729 198.9676 273.4495 197.8924 273.4495 C 196.7806 273.4495 195.8934 272.9689 195.4157 272.1078 L 195.1726 271.6695 L 195.1205 234.4199 C 195.0743 201.4658 195.0502 197.1585 194.9116 197.068 C 194.6985 196.9288 119.5414 196.9288 119.3284 197.068 C 119.1897 197.1586 119.1697 201.4292 119.1538 234.3223 C 119.1383 266.2204 119.1147 271.5263 118.9869 271.8416 C 118.7509 272.4237 118.2838 272.9202 117.7145 273.1942 C 117.0191 273.5287 115.9358 273.5425 115.2569 273.2253 C 114.7235 272.976 114.1728 272.4698 113.9169 271.9932 C 113.756 271.6935 113.7392 268.9065 113.6909 234.4328 C 113.6622 213.9526 113.5996 197.1557 113.5517 197.1062 C 113.5039 197.0568 95.62855 196.9921 73.82875 196.9624 L 34.19276 196.9085 L 33.77517 196.6443 C 32.64975 195.9324 32.34345 195.4958 32.20325 194.4036 C 32.11298 193.7005 32.38045 192.6335 32.77647 192.1168 C 32.94382 191.8985 33.33164 191.5887 33.63825 191.4283 L 34.19576 191.1369 L 73.55185 191.1261 C 95.19769 191.1202 113.0254 191.0817 113.1689 191.0406 C 113.3507 190.9886 113.4697 190.8414 113.561 190.5556 C 113.6654 190.2288 113.6867 182.3132 113.6654 151.6867 L 113.6387 113.2281 L 113.3923 113.0219 C 113.1506 112.8196 112.3841 112.8156 73.81177 112.8156 C 37.23131 112.8156 34.43964 112.8029 33.93366 112.6341 C 33.23147 112.3997 32.53303 111.7124 32.34797 111.0735 C 32.13054 110.323 32.18017 109.1735 32.45537 108.586 C 32.71513 108.0315 33.37657 107.4169 33.92126 107.2238 C 34.18907 107.1288 43.89919 107.098 73.5007 107.098 C 95.07423 107.098 112.8774 107.0665 113.0633 107.0281 C 113.7404 106.8882 113.6907 109.8578 113.6932 69.37029 C 113.6955 33.53487 113.701 32.48658 113.8914 32.06719 C 114.1269 31.54858 114.4749 31.15981 115.0134 30.81387 C 115.3653 30.58779 115.5392 30.55686 116.4575 30.55686 C 117.3761 30.55686 117.5495 30.58775 117.902 30.81421 C 118.41 31.14054 118.6624 31.41741 118.946 31.9593 L 119.1718 32.39082 L 119.1759 69.44774 C 119.1782 89.82903 119.2161 106.583 119.26 106.6788 C 119.3039 106.7746 119.4569 106.9081 119.6 106.9755 C 119.7926 107.0662 129.5419 107.098 157.1301 107.098 C 187.0518 107.098 193.3158 107.1137 194.6589 106.9029 Z M 194.6324 168.887 C 194.6332 163.9783 194.6311 158.1402 194.6262 151.2928 L 194.599 112.743 L 194.3525 112.5368 C 194.1109 112.3346 193.3734 112.3305 156.6507 112.3305 C 119.9268 112.3305 119.1906 112.3346 118.949 112.5368 L 118.7025 112.743 L 118.7084 151.2928 C 118.7117 172.4952 118.7468 189.972 118.7865 190.1302 C 118.8312 190.3083 118.968 190.4591 119.146 190.5263 C 119.5767 190.6888 193.8243 190.6924 194.1694 190.5298 C 194.3118 190.4628 194.4789 190.2808 194.5409 190.1253 C 194.6009 189.9747 194.6298 183.6132 194.6324 168.887 Z" fill="#000000" fill-opacity="1" stroke="#FF0000" stroke-opacity="1" stroke-width="0.1" stroke-linecap="round" stroke-linejoin="round"/>
<path d="M 154.4898 263.6198 C 153.677 263.3961 152.1181 262.7938 151.4702 262.4532 C 149.8891 261.6219 147.7896 259.8609 146.5516 258.3276 C 145.9208 257.5463 145.5907 257.0717 144.6205 255.5516 C 143.1326 253.2204 141.5756 249.6497 140.7285 246.6257 C 140.5654 246.0432 140.3662 245.3625 140.2859 245.1128 C 140.2056 244.8632 140.1091 244.4774 140.0715 244.2555 C 140.034 244.0336 139.9466 243.7386 139.8774 243.5999 C 139.8082 243.4613 139.6535 242.7124 139.5337 241.9358 C 139.4139 241.1592 139.2751 240.3422 139.2253 240.1203 C 139.1756 239.8985 139.1059 239.4219 139.0705 239.0613 C 139.0351 238.7008 138.9443 238.088 138.8686 237.6997 C 138.793 237.3114 138.7031 236.2676 138.6688 235.38 C 138.6345 234.4924 138.556 233.5166 138.4944 233.2115 C 138.4264 232.8747 138.3807 231.3494 138.3782 229.3285 C 138.3749 226.6891 138.409 225.781 138.543 224.9412 C 138.6359 224.3587 138.7134 223.5314 138.7151 223.1026 C 138.7169 222.6738 138.7884 221.9476 138.874 221.4888 C 138.9596 221.0301 139.1214 220.1555 139.2336 219.5453 C 139.5865 217.6252 139.7405 216.9327 139.8876 216.6051 C 139.966 216.4303 140.0322 216.2261 140.0347 216.1513 C 140.0371 216.0764 140.1081 215.8337 140.1925 215.6118 C 140.2769 215.3899 140.4088 215.0041 140.4855 214.7545 C 141.1454 212.6087 142.2605 210.3285 143.6244 208.3359 C 144.7165 206.7403 146.836 204.6077 148.1322 203.8 C 149.8694 202.7175 151.3238 202.0653 152.6115 201.7913 C 152.9905 201.7107 153.5234 201.5762 153.7959 201.4925 C 154.184 201.3733 154.865 201.3404 156.9405 201.3404 C 159.3021 201.3404 159.6591 201.3621 160.2294 201.5408 C 160.5813 201.651 160.951 201.7418 161.0512 201.7425 C 161.4141 201.7451 163.6268 202.536 164.5577 202.9958 C 166.1557 203.7852 166.7744 204.1597 167.8292 204.9761 C 169.4704 206.2464 170.9324 207.7798 172.1613 209.5196 C 172.5764 210.1074 173.8248 212.2244 174.1183 212.8382 C 174.1846 212.9769 174.2818 213.1584 174.3342 213.2416 C 174.5061 213.5141 174.8283 214.278 175.3555 215.6622 C 175.6407 216.4111 175.9314 217.16 176.0016 217.3264 C 176.1165 217.5989 176.457 218.9266 177.0564 221.4401 C 177.1726 221.9275 177.2677 222.4778 177.2677 222.6629 C 177.2677 222.848 177.3395 223.1981 177.4272 223.4408 C 177.5183 223.6931 177.6266 224.5002 177.6801 225.3246 C 177.7315 226.1179 177.8176 226.9576 177.8714 227.1905 C 177.9989 227.7424 177.9988 234.25 177.8713 234.7749 C 177.8174 234.9967 177.7445 235.9045 177.7092 236.792 C 177.6714 237.7428 177.5873 238.5715 177.5045 238.8092 C 177.4272 239.0311 177.3203 239.5757 177.267 240.0195 C 177.2137 240.4633 177.1029 241.1214 177.0208 241.4819 C 176.9387 241.8425 176.7083 242.8829 176.5088 243.7939 C 176.3093 244.7049 176.1048 245.5274 176.0544 245.6215 C 176.004 245.7157 175.9183 245.9688 175.8639 246.184 C 175.8096 246.3992 175.6248 246.961 175.4532 247.4326 C 175.2817 247.9041 175.0706 248.5168 174.9841 248.7941 C 174.7881 249.4228 174.7063 249.6061 173.6795 251.719 C 173.2212 252.6621 172.7398 253.5925 172.6098 253.7866 C 172.4797 253.9808 172.1959 254.4346 171.9792 254.7952 C 170.714 256.8998 168.1093 259.6941 166.288 260.9005 C 165.8052 261.2202 165.2967 261.5576 165.158 261.6503 C 164.6393 261.9966 162.9574 262.7588 162.0801 263.045 C 159.8919 263.759 160.1518 263.7195 157.4885 263.7429 C 155.5959 263.7596 154.8926 263.7307 154.4898 263.6198 Z M 158.1444 256.5116 C 160.2746 256.0354 161.7413 255.2658 163.2292 253.8436 C 164.2336 252.8837 165.5983 251.088 166.0036 250.1933 C 166.0822 250.0197 166.1969 249.8467 166.2584 249.8087 C 166.3612 249.7452 167.195 248.1047 167.599 247.1709 C 168.5635 244.9422 168.9917 243.6418 169.5388 241.2802 C 169.6224 240.9196 169.7834 240.2258 169.8968 239.7384 C 170.0101 239.251 170.1036 238.6837 170.1046 238.4777 C 170.1055 238.2717 170.1763 237.7855 170.2618 237.3972 C 170.4361 236.6062 170.6413 233.4174 170.6417 231.497 C 170.642 229.6747 170.4372 225.9573 170.3145 225.5571 C 170.2567 225.3689 170.1797 224.8696 170.1432 224.4476 C 170.1067 224.0257 170.0197 223.5397 169.9499 223.3676 C 169.88 223.1955 169.7897 222.8551 169.7491 222.6112 C 169.5793 221.5892 168.9903 219.6201 168.4249 218.1837 C 168.0003 217.1052 166.9428 215.0504 166.4638 214.3733 C 164.8932 212.153 164.5254 211.7409 163.392 210.9313 C 161.1884 209.3571 159.0378 208.6033 156.7484 208.6025 C 154.973 208.6019 153.1672 209.2468 151.7186 210.3988 C 150.4371 211.418 149.1087 213.2837 148.2887 215.216 C 148.1963 215.4337 148.0286 215.816 147.9161 216.0657 C 147.4671 217.0614 146.5931 219.9848 146.5893 220.5034 C 146.5883 220.6421 146.5256 220.9598 146.4498 221.2094 C 146.3741 221.459 146.2807 222.0037 146.2423 222.4197 C 146.2039 222.8358 146.096 223.4031 146.0026 223.6805 C 145.852 224.1278 145.8328 224.7881 145.8328 229.5302 C 145.8328 233.7001 145.8623 234.9644 145.9667 235.2791 C 146.0403 235.501 146.1615 236.2045 146.2361 236.8425 C 146.3793 238.0681 146.42 238.311 146.8442 240.4733 C 146.991 241.2222 147.1494 242.0461 147.196 242.3043 C 147.2427 242.5624 147.3461 242.9028 147.4258 243.0607 C 147.5056 243.2186 147.6012 243.5464 147.6385 243.7891 C 147.6757 244.0318 147.7608 244.3268 147.8275 244.4447 C 147.8942 244.5625 148.0014 244.8632 148.0657 245.1128 C 148.13 245.3625 148.2307 245.7029 148.2896 245.8693 C 148.3484 246.0357 148.5161 246.5349 148.6623 246.9787 C 149.034 248.1072 150.2207 250.5136 151.0165 251.7527 C 152.722 254.4082 154.5405 255.977 156.5298 256.509 C 156.9425 256.6194 157.6572 256.6205 158.1444 256.5116 Z" fill="#000000" fill-opacity="1" stroke="#FF0000" stroke-opacity="1" stroke-width="0.1" stroke-linecap="round" stroke-linejoin="round"/>
<path d="M 60.42016 267.8417 C 59.51379 267.5679 58.55126 266.5627 58.32012 265.6485 C 58.24101 265.3356 58.12624 264.8836 58.06508 264.6441 C 57.90719 264.0258 58.07881 263.5629 59.66287 260.3345 C 60.39904 258.8341 61.16481 257.2683 61.3646 256.8549 C 61.56437 256.4415 61.77005 256.0352 61.82164 255.9519 C 61.87323 255.8687 62.73661 254.1214 63.74026 252.0689 C 64.7439 250.0164 65.63716 248.201 65.72528 248.0346 C 65.95388 247.6028 66.75401 246.0097 67.42223 244.6558 C 67.73708 244.0179 68.03441 243.4279 68.08296 243.3447 C 68.41772 242.771 68.88979 241.5928 68.88979 241.331 C 68.88979 241.0109 68.49841 240.3332 67.74957 239.3565 C 67.38805 238.8849 66.69227 237.8916 65.1741 235.6794 C 64.81244 235.1525 64.43184 234.6078 64.32831 234.4691 C 63.86668 233.8508 62.92326 232.528 62.35009 231.6955 C 62.00635 231.1963 61.52238 230.5155 61.27458 230.1827 C 61.02678 229.8498 60.73596 229.4187 60.62832 229.2245 C 60.52068 229.0304 60.29351 228.7127 60.1235 228.5185 C 59.95349 228.3244 59.46607 227.6436 59.04036 227.0056 C 58.61464 226.3677 58.17874 225.7323 58.0717 225.5936 C 57.96465 225.4549 57.08799 224.2068 56.12355 222.82 C 55.15912 221.4332 54.28311 220.1851 54.17688 220.0464 C 53.62513 219.3262 52.84341 218.0839 52.69113 217.6854 C 52.55555 217.3306 52.52749 217.0093 52.56086 216.194 C 52.61433 214.8877 52.86419 214.3385 53.73405 213.615 C 54.54038 212.9443 55.19709 212.7464 56.40899 212.8091 C 57.94286 212.8883 58.52886 213.3024 59.91131 215.2839 C 60.60963 216.2848 61.37815 217.3851 61.72318 217.878 C 61.83968 218.0444 62.21383 218.5663 62.5546 219.0378 C 62.89537 219.5094 63.43712 220.2809 63.75847 220.7524 C 64.07983 221.2239 64.48693 221.814 64.66315 222.0636 C 64.83937 222.3132 65.20717 222.8351 65.4805 223.2234 C 66.07312 224.0654 67.4451 226.003 67.72928 226.3994 C 67.84029 226.5542 68.24162 227.1284 68.62115 227.6753 C 69.00069 228.2223 69.6441 229.1463 70.05095 229.7288 C 70.4578 230.3113 71.14392 231.3035 71.57567 231.9337 C 72.46402 233.2304 72.73798 233.4393 73.04831 233.0562 C 73.15783 232.9211 74.76794 229.7457 76.62631 225.9998 C 78.4847 222.2539 80.05479 219.0984 80.11543 218.9874 C 80.17607 218.8765 81.17309 216.8795 82.33104 214.5497 C 83.48899 212.2198 84.4827 210.2313 84.53929 210.1307 C 84.63338 209.9634 85.1563 208.9154 86.05836 207.0861 C 86.78843 205.6057 87.38098 204.613 87.69121 204.3507 C 87.86826 204.201 88.34486 203.9269 88.75034 203.7416 C 89.36922 203.4589 89.60455 203.4048 90.21645 203.4048 C 90.83867 203.4048 91.0483 203.4547 91.6489 203.7459 C 92.67413 204.243 93.13612 204.6854 93.45097 205.4715 C 93.68003 206.0433 93.7148 206.2776 93.7148 207.2495 L 93.7148 208.3689 L 92.3336 211.1062 C 91.57394 212.6118 90.36775 215.0237 89.65315 216.466 C 88.93856 217.9082 88.29203 219.2017 88.21643 219.3404 C 88.14083 219.4791 87.91116 219.933 87.70605 220.349 C 86.99438 221.7926 85.96172 223.8541 85.8559 224.0426 C 85.7111 224.3004 79.36171 237.1003 79.22787 237.4042 C 79.16925 237.5373 78.88616 238.0923 78.59879 238.6376 C 77.68313 240.3751 77.67377 240.6867 78.50357 241.8092 C 78.9575 242.4233 79.87659 243.7276 80.66937 244.8829 C 80.79305 245.0631 81.13364 245.5454 81.42624 245.9547 C 81.71884 246.3641 82.16431 246.9995 82.41617 247.3668 C 82.66804 247.7341 83.43794 248.8288 84.12706 249.7996 C 84.81618 250.7703 85.59582 251.8823 85.85957 252.2706 C 86.37252 253.0258 86.92712 253.818 87.6248 254.7921 C 87.86319 255.1249 88.36597 255.8511 88.74208 256.4058 C 89.11819 256.9605 89.46013 257.4398 89.50195 257.471 C 89.57826 257.5278 89.83591 257.9012 90.91618 259.5207 C 91.68737 260.6769 91.85104 261.374 91.65642 262.6736 C 91.55208 263.3702 91.45293 263.6699 91.20569 264.0356 C 90.86353 264.5416 90.24741 265.13 90.05963 265.13 C 89.99576 265.13 89.83599 265.231 89.70459 265.3543 C 89.48315 265.5623 89.3705 265.5787 88.16449 265.5787 C 86.99968 265.5787 86.83894 265.5572 86.63089 265.3736 C 86.50307 265.2608 86.28072 265.1187 86.13678 265.0578 C 85.70802 264.8763 85.30447 264.3568 82.66759 260.5914 C 82.49278 260.3418 82.094 259.7693 81.78142 259.3192 C 80.98177 258.1678 80.66493 257.7175 80.08604 256.9101 C 79.80766 256.5218 79.42304 255.9771 79.23134 255.6998 C 79.03963 255.4224 78.45344 254.5828 77.92867 253.8339 C 77.40389 253.085 76.71243 252.0865 76.39207 251.615 C 76.07173 251.1435 75.67178 250.5714 75.5033 250.3437 C 75.33481 250.1161 74.99744 249.6508 74.75359 249.3099 C 74.3932 248.8061 74.2578 248.6901 74.03018 248.6901 C 73.6835 248.6901 73.58022 248.8496 72.50995 251.0377 C 72.06973 251.9377 71.66833 252.7482 71.61797 252.8389 C 71.45506 253.1322 70.13245 255.7755 69.70705 256.6579 C 69.47975 257.1295 69.24996 257.5833 69.1964 257.6665 C 69.14284 257.7497 68.35654 259.3156 67.44908 261.1461 C 66.54162 262.9767 65.74956 264.5652 65.68893 264.6761 C 65.62831 264.7871 65.4286 265.1848 65.24515 265.5598 C 64.76774 266.5359 64.2838 267.1179 63.60093 267.5371 C 63.01831 267.8948 62.97886 267.9037 61.88538 267.9247 C 61.2698 267.9366 60.61047 267.8992 60.42016 267.8417 Z" fill="#000000" fill-opacity="1" stroke="#FF0000" stroke-opacity="1" stroke-width="0.1" stroke-linecap="round" stroke-linejoin="round"/>
<path d="M 234.1848 178.405 C 233.824 178.3616 233.3472 178.2539 233.1252 178.1658 C 232.9032 178.0776 232.6401 178.0036 232.5407 178.0011 C 232.4412 177.9987 232.0685 177.8605 231.7123 177.6941 C 231.3562 177.5277 231.0004 177.3915 230.9216 177.3915 C 230.8428 177.3915 230.7218 177.3235 230.6527 177.2402 C 230.5836 177.157 230.4933 177.089 230.4519 177.089 C 230.3559 177.089 228.9694 176.1649 228.1803 175.5749 C 227.3022 174.9184 226.0425 173.6373 225.3055 172.6512 C 224.4891 171.559 223.7905 170.5612 223.7905 170.4874 C 223.7905 170.4559 223.556 170.0562 223.2693 169.5991 C 222.4759 168.3342 221.1744 165.5649 220.7201 164.1751 C 220.6392 163.9277 220.4319 163.3395 220.2593 162.868 C 220.0867 162.3965 219.8835 161.8064 219.8078 161.5568 C 219.7321 161.3072 219.6232 160.9668 219.5659 160.8004 C 219.5086 160.634 219.3174 159.8624 219.141 159.0858 C 218.9646 158.3092 218.7352 157.3232 218.6312 156.8948 C 218.5272 156.4664 218.4421 155.97 218.4421 155.7918 C 218.4421 155.6136 218.3556 155.1472 218.2498 154.7553 C 218.1441 154.3635 218.0305 153.6486 217.9974 153.1667 C 217.9643 152.6847 217.8943 152.1774 217.8417 152.0392 C 217.6637 151.5712 217.4834 147.5045 217.4834 143.957 C 217.4834 140.3191 217.6221 137.6884 217.8868 136.3082 C 217.9702 135.8734 218.0384 135.3387 218.0384 135.1199 C 218.0384 134.9011 218.111 134.5533 218.1998 134.3471 C 218.2885 134.1408 218.3971 133.7225 218.4411 133.4174 C 218.6043 132.2842 219.7815 128.2692 220.0528 127.9206 C 220.096 127.8651 220.1895 127.6382 220.2607 127.4163 C 220.3318 127.1944 220.4465 126.9221 220.5156 126.8112 C 220.5847 126.7002 220.6747 126.496 220.7156 126.3573 C 220.7884 126.1106 221.4798 124.8394 221.9224 124.1384 C 222.7035 122.9013 223.0013 122.4837 223.6481 121.7178 C 224.8144 120.3369 226.3991 118.9315 227.6433 118.1746 C 228.2547 117.8027 229.5536 117.1265 229.795 117.0544 C 229.906 117.0213 230.3147 116.8744 230.7032 116.728 C 232.2091 116.1606 233.0712 116.0514 236.0517 116.0509 C 238.6128 116.0505 238.837 116.0654 239.7855 116.3002 C 243.3382 117.1793 246.5031 118.9836 248.9811 121.5425 C 250.5732 123.1867 251.3896 124.345 253.0623 127.3327 C 253.5475 128.1992 254.5789 130.7082 255.0248 132.1062 C 255.1752 132.5777 255.3559 133.1224 255.4263 133.3165 C 255.4968 133.5107 255.5879 133.8738 255.6288 134.1234 C 255.6696 134.373 255.7457 134.6584 255.7978 134.7576 C 256.0062 135.154 256.5684 138.4764 256.6889 140.0236 C 256.7408 140.6893 256.83 141.4784 256.8873 141.7772 C 257.0151 142.4435 257.012 148.5585 256.8833 149.7564 C 256.8327 150.2279 256.7478 151.1572 256.6948 151.8214 C 256.6086 152.8999 256.5089 153.6262 256.189 155.5053 C 256.137 155.8104 256.0654 156.287 256.0298 156.5643 C 255.9942 156.8417 255.8994 157.2502 255.8192 157.472 C 255.7391 157.6939 255.6327 158.1024 255.5829 158.3798 C 255.533 158.6571 255.4191 159.111 255.3296 159.3884 C 255.2401 159.6657 255.0962 160.1423 255.0098 160.4474 C 254.7489 161.3684 254.0083 163.4634 253.5837 164.4817 C 252.9005 166.1198 251.5382 168.7173 250.78 169.8272 C 250.6474 170.0213 250.3899 170.4006 250.2079 170.6701 C 249.255 172.0807 246.8478 174.5595 245.6502 175.3634 C 244.7598 175.961 243.8988 176.4968 243.5194 176.6894 C 243.2974 176.8021 242.9568 176.9812 242.7625 177.0874 C 242.5682 177.1937 242.1141 177.3797 241.7534 177.5008 C 241.3926 177.6219 241.0469 177.7607 240.9851 177.8093 C 240.9233 177.8578 240.6055 177.9447 240.2787 178.0023 C 239.952 178.0599 239.5044 178.1766 239.2842 178.2616 C 238.8212 178.4402 235.2988 178.5393 234.1848 178.405 Z M 237.5654 171.085 C 237.7874 171.0051 238.0569 170.9389 238.1643 170.9381 C 238.2716 170.9373 238.5441 170.8499 238.7697 170.744 C 238.9954 170.638 239.4313 170.4351 239.7385 170.2931 C 242.3711 169.0758 244.6569 166.2244 246.823 161.4559 C 246.9616 161.1508 247.2215 160.4474 247.4005 159.8926 C 247.5795 159.3379 247.7847 158.7706 247.8566 158.6319 C 247.9284 158.4932 248.0204 158.1755 248.061 157.9259 C 248.1016 157.6763 248.1987 157.3473 248.2768 157.1948 C 248.4293 156.897 248.8719 154.7258 249.0324 153.4881 C 249.0863 153.0721 249.1936 152.414 249.2709 152.0257 C 249.3481 151.6374 249.4353 150.5848 249.4646 149.6866 C 249.4939 148.7884 249.5675 147.8568 249.6281 147.6164 C 249.7929 146.962 249.4893 140.9108 249.2218 139.5193 C 248.5354 135.9492 248.2661 134.881 247.796 133.8646 C 247.6917 133.6391 247.6064 133.4157 247.6064 133.3682 C 247.6064 133.3208 247.4907 132.9833 247.3492 132.6184 C 246.553 130.5645 245.3463 128.6009 243.7804 126.8111 C 243.1819 126.127 241.1945 124.6427 240.8769 124.6427 C 240.8189 124.6427 240.6631 124.5605 240.5307 124.4601 C 240.1756 124.1907 239.3141 123.862 238.1725 123.5602 C 237.3414 123.3406 236.9375 123.2927 235.9003 123.2907 C 234.8043 123.2885 234.5065 123.3264 233.6297 123.58 C 232.6359 123.8674 231.5616 124.4205 230.7163 125.0801 C 229.4166 126.0943 227.7179 128.6821 226.8325 130.9968 C 226.0439 133.0582 225.6994 134.3421 225.3036 136.6953 C 225.2382 137.0836 225.1151 137.787 225.0299 138.2585 C 224.9137 138.9015 224.8634 140.1372 224.8288 143.2006 C 224.7774 147.7481 224.8651 149.3616 225.3167 152.177 C 225.3746 152.5375 225.4642 153.1049 225.5158 153.4377 C 225.7644 155.0388 226.3125 157.366 226.858 159.1362 C 227.3026 160.5789 227.5275 161.2371 227.668 161.5063 C 227.7548 161.6728 227.8262 161.8583 227.8265 161.9187 C 227.8274 162.0817 228.8365 164.4067 228.9826 164.5825 C 229.0518 164.6657 229.1329 164.8019 229.163 164.8851 C 229.3441 165.3866 230.8374 167.6482 231.469 168.3773 C 232.1599 169.175 233.5846 170.4323 233.7977 170.4323 C 233.848 170.4323 234.0091 170.5117 234.1557 170.6088 C 235.0231 171.1831 236.6586 171.4115 237.5654 171.085 Z" fill="#000000" fill-opacity="1" stroke="#FF0000" stroke-opacity="1" stroke-width="0.1" stroke-linecap="round" stroke-linejoin="round"/>
<path d="M 153.4026 98.92113 C 153.2361 98.8755 152.8302 98.76303 152.5006 98.67119 C 150.5517 98.12817 147.8224 96.35478 146.025 94.46355 C 143.7493 92.06915 141.0038 86.99995 139.7827 82.93785 C 139.6326 82.4386 139.448 81.87128 139.3723 81.67712 C 139.2967 81.48297 139.2073 81.16527 139.1736 80.97112 C 139.1399 80.77696 139.0493 80.45926 138.9722 80.26511 C 138.7949 79.81856 138.2445 77.21959 138.1246 76.26308 C 138.0746 75.8648 138.0015 75.48682 137.9621 75.42311 C 137.9227 75.3594 137.8506 74.81173 137.8019 74.20609 C 137.7532 73.60044 137.6408 72.93456 137.5521 72.72633 C 137.0301 71.50053 137.0259 58.27688 137.5471 57.03003 C 137.6314 56.82837 137.7278 56.37992 137.7612 56.03347 C 137.8515 55.09646 138.6888 51.47245 139.0719 50.36065 C 139.3647 49.51105 139.6426 48.76188 139.7829 48.44435 C 139.8564 48.27793 139.9471 48.02831 139.9843 47.88963 C 140.1042 47.44349 141.4546 44.94272 142.0811 44.00659 C 142.6808 43.11066 143.6382 41.92413 144.4892 41.02251 C 145.021 40.45899 146.7701 39.01411 146.9205 39.01411 C 146.9802 39.01411 147.1008 38.9507 147.1884 38.87319 C 147.276 38.79568 147.6466 38.57481 148.0119 38.38235 C 148.3772 38.1899 148.7859 37.96138 148.9201 37.87453 C 149.0543 37.78767 149.3004 37.68459 149.4669 37.64545 C 149.6334 37.6063 149.8221 37.53318 149.8862 37.48296 C 150.0445 37.35885 151.1243 37.05607 152.2071 36.83213 C 152.9377 36.68104 153.5765 36.64728 155.7236 36.6463 C 158.0934 36.64522 158.4451 36.66733 159.3565 36.8747 C 161.009 37.25068 161.618 37.46497 163.2418 38.24199 C 166.6095 39.85355 168.8295 41.80708 171.2253 45.26731 C 172.273 46.7805 174.1405 50.54453 174.1405 51.14291 C 174.1405 51.21497 174.2025 51.36345 174.2783 51.47287 C 174.3541 51.58228 174.4485 51.78527 174.4882 51.92395 C 174.5278 52.06263 174.6423 52.40303 174.7425 52.68039 C 175.1641 53.84676 175.3783 54.67778 175.7955 56.76515 C 176.2168 58.87285 176.2874 59.32834 176.3657 60.44647 C 176.4124 61.11214 176.5204 61.97447 176.6057 62.36277 C 176.8215 63.34498 176.8234 68.69389 176.6084 70.07843 C 176.5266 70.60542 176.4188 71.69468 176.3688 72.49902 C 176.3188 73.30337 176.2312 74.08204 176.174 74.22942 C 176.1168 74.37679 176.042 74.78527 176.0077 75.13715 C 175.9734 75.48902 175.8823 76.07192 175.8053 76.4325 C 175.7283 76.79307 175.5903 77.54193 175.4988 78.09665 C 175.4073 78.65137 175.2715 79.24817 175.1971 79.42287 C 175.1226 79.59756 175.0306 79.91527 174.9925 80.12888 C 174.9545 80.34248 174.8438 80.7215 174.7465 80.97112 C 174.6493 81.22073 174.4461 81.83345 174.2949 82.3327 C 173.9425 83.49648 173.5057 84.65541 173.0593 85.61058 C 172.2518 87.33834 171.5877 88.63297 171.1192 89.39276 C 170.8455 89.83654 170.5514 90.32048 170.4657 90.46817 C 169.8389 91.54747 168.2568 93.36627 166.663 94.83978 C 164.6536 96.69751 161.8849 98.15177 159.0905 98.81718 C 158.3366 98.99668 157.914 99.02333 155.9621 99.0144 C 154.7209 99.00873 153.5691 98.96675 153.4026 98.92113 Z M 157.1364 91.7058 C 157.3584 91.62376 157.7588 91.51288 158.0262 91.4594 C 158.6365 91.33731 159.9453 90.68244 160.8114 90.06581 C 162.0421 89.18957 163.088 88.01305 164.431 85.99419 C 165.306 84.67899 166.6445 81.94939 166.9932 80.76939 C 167.0506 80.57524 167.1303 80.37101 167.1705 80.31554 C 167.3182 80.11137 168.0631 77.57051 168.3237 76.38206 C 168.8303 74.07134 169.1842 71.61852 169.2397 70.03281 C 169.2687 69.20337 169.3472 68.16709 169.4142 67.72995 C 169.5082 67.1164 169.5091 66.67831 169.4182 65.80884 C 169.3534 65.18936 169.2723 63.95633 169.2379 63.06878 C 169.2036 62.18123 169.1151 61.13735 169.0414 60.74905 C 168.9676 60.36074 168.8793 59.8388 168.8451 59.58918 C 168.7812 59.12267 168.6865 58.69724 168.2387 56.866 C 167.84 55.23507 167.7255 54.85775 167.3821 54.04198 C 167.2069 53.62594 167.0031 53.12669 166.929 52.93254 C 166.1445 50.87473 164.3993 48.20401 162.9636 46.86411 C 161.9897 45.95517 160.4104 45.00456 159.0531 44.51028 C 154.5689 42.87723 150.5787 44.32646 148.0174 48.51851 C 147.5396 49.30038 146.4058 51.71517 146.229 52.32739 C 146.1569 52.57701 146.0016 53.12165 145.8838 53.53769 C 145.766 53.95372 145.6078 54.49836 145.5322 54.74798 C 145.4567 54.99761 145.3648 55.42878 145.3281 55.70613 C 145.2915 55.98349 145.1745 56.46997 145.0684 56.78718 C 144.9622 57.1044 144.8753 57.56459 144.8753 57.80983 C 144.8753 58.05508 144.7983 58.63519 144.7041 59.09896 C 144.5575 59.82173 144.5331 60.62653 144.5334 64.73294 C 144.5337 68.15434 144.5695 69.69669 144.659 70.12886 C 144.7279 70.46169 144.8243 71.23325 144.8731 71.84344 C 144.922 72.45364 145.0276 73.11174 145.1079 73.30589 C 145.1881 73.50005 145.2847 73.99929 145.3226 74.41533 C 145.3605 74.83137 145.4525 75.3987 145.527 75.67606 C 145.6015 75.95341 145.8068 76.81575 145.9832 77.59236 C 146.1596 78.36897 146.3834 79.23131 146.4804 79.50867 C 146.9092 80.73447 147.0157 81.04861 147.147 81.4754 C 147.9153 83.97296 149.4463 86.84789 151.0589 88.82124 C 152.036 90.017 153.5749 91.23532 154.3529 91.429 C 154.4962 91.4647 154.7952 91.57613 155.0172 91.67664 C 155.5142 91.90163 156.5672 91.91613 157.1364 91.7058 Z" fill="#000000" fill-opacity="1" stroke="#FF0000" stroke-opacity="1" stroke-width="0.1" stroke-linecap="round" stroke-linejoin="round"/>
<path d="M 61.05312 177.1344 C 60.19925 177.0337 59.23969 176.4 58.75238 175.615 C 58.57912 175.336 58.3959 174.8182 58.29441 174.3209 C 58.13597 173.5445 58.13604 173.443 58.2955 172.7185 C 58.38913 172.2931 58.51941 171.877 58.58501 171.7938 C 58.65061 171.7106 58.94653 171.1432 59.24261 170.533 C 60.00102 168.97 60.36391 168.2372 60.46632 168.062 C 60.51495 167.9788 61.49318 166.0045 62.64019 163.6747 C 64.95369 158.9754 66.52921 155.8059 66.70239 155.5027 C 66.76496 155.3931 67.1797 154.5546 67.62402 153.6393 C 68.06835 152.724 68.47483 151.907 68.52731 151.8238 C 68.7586 151.4571 69.04052 150.7309 69.03888 150.5061 C 69.0379 150.371 68.81448 149.9428 68.5424 149.5545 C 68.27033 149.1662 67.74782 148.4174 67.38127 147.8904 C 67.01472 147.3634 66.37413 146.4557 65.95772 145.8732 C 65.54131 145.2908 65.00044 144.5192 64.75581 144.1586 C 64.51118 143.798 64.16045 143.2925 63.97638 143.0351 C 63.79232 142.7778 63.23302 141.9922 62.73349 141.2895 C 62.23397 140.5867 61.60916 139.708 61.34503 139.3368 C 60.8494 138.6402 60.35435 137.9312 59.5709 136.796 C 59.32206 136.4354 58.98835 135.9589 58.82932 135.737 C 58.67028 135.5151 58.33784 135.0385 58.09056 134.6779 C 57.84327 134.3174 57.50919 133.8408 57.34815 133.6189 C 57.18711 133.397 56.62607 132.6028 56.1014 131.8539 C 54.85427 130.0739 54.48122 129.5441 53.80707 128.5957 C 53.49932 128.1627 53.10097 127.5273 52.92185 127.1837 C 52.61736 126.5995 52.59603 126.4916 52.59388 125.5235 C 52.59172 124.5561 52.61154 124.4529 52.89604 123.949 C 53.28391 123.2622 53.91604 122.6312 54.55941 122.2888 C 55.0306 122.038 55.1452 122.021 56.29154 122.0308 C 57.41871 122.0405 57.55487 122.0626 57.95663 122.3005 C 58.51014 122.6282 59.30461 123.4446 59.8924 124.2896 C 60.83691 125.6474 61.713 126.9033 62.61226 128.1886 C 63.12297 128.9186 63.78712 129.8717 64.08817 130.3066 C 64.38921 130.7416 64.82016 131.3471 65.04584 131.6522 C 65.27152 131.9573 65.62464 132.4566 65.83055 132.7617 C 66.03646 133.0668 66.36877 133.5433 66.569 133.8207 C 66.76923 134.098 67.05486 134.5065 67.20372 134.7284 C 67.35259 134.9503 67.7719 135.5403 68.13553 136.0396 C 68.49915 136.5388 68.94501 137.169 69.12634 137.4401 C 69.43326 137.8988 70.09005 138.8479 70.84428 139.9226 C 71.01948 140.1722 71.46538 140.8201 71.83516 141.3624 C 72.55373 142.4161 72.88059 142.6476 73.14319 142.2886 C 73.21769 142.1868 74.48759 139.6725 75.96521 136.7014 C 77.44283 133.7302 78.80675 131.0042 78.99614 130.6436 C 79.18552 130.2831 79.52491 129.6023 79.75034 129.1308 C 80.18102 128.2299 80.8118 126.9696 81.088 126.458 C 81.17785 126.2916 82.55923 123.523 84.15775 120.3057 C 85.75626 117.0883 87.2113 114.2536 87.39117 114.0063 C 87.76217 113.4964 88.02933 113.2937 88.81993 112.9225 C 89.2852 112.704 89.52184 112.6612 90.28319 112.6581 C 91.06918 112.6549 91.26878 112.6914 91.7662 112.9297 C 92.5764 113.3177 93.2859 113.9876 93.56636 114.6294 C 93.76494 115.0838 93.80008 115.3393 93.80605 116.3722 L 93.81303 117.5825 L 93.26952 118.6415 C 92.78358 119.5883 89.02071 127.0741 88.76947 127.5938 C 88.40303 128.3518 87.36859 130.4436 87.23631 130.6941 C 87.14842 130.8605 86.05898 133.039 84.81534 135.5352 C 83.57169 138.0315 82.50291 140.1646 82.44028 140.2756 C 82.37765 140.3865 82.05942 141.0219 81.73309 141.6876 C 81.40677 142.3533 80.83565 143.5118 80.46393 144.2621 C 80.09221 145.0124 79.73903 145.7385 79.67909 145.8758 C 79.57279 146.1192 78.91109 147.3869 78.73282 147.6887 C 78.39272 148.2643 77.99955 149.2944 78.00375 149.5987 C 78.01048 150.0854 78.12868 150.3655 78.59055 150.989 C 78.80516 151.2787 79.17764 151.8006 79.41827 152.1489 C 79.65891 152.4971 80.39906 153.5536 81.06305 154.4966 C 81.72704 155.4396 82.37833 156.37 82.51035 156.5642 C 82.64236 156.7583 82.95938 157.2122 83.21483 157.5728 C 83.47028 157.9333 83.9018 158.546 84.17378 158.9343 C 84.44576 159.3226 84.8954 159.9581 85.17299 160.3464 C 85.45058 160.7346 85.98735 161.5037 86.36581 162.0554 C 86.74428 162.6071 87.13246 163.1517 87.22844 163.2657 C 87.39426 163.4626 88.31052 164.778 89.07356 165.9146 C 89.26752 166.2035 89.7326 166.8627 90.10701 167.3794 C 91.69373 169.5693 91.98444 170.3384 91.76317 171.7608 C 91.55011 173.1305 91.00173 173.9108 89.85432 174.4771 C 89.32552 174.7381 89.18006 174.7631 88.21445 174.7588 C 87.27976 174.7547 87.09535 174.7235 86.65027 174.4947 C 86.02177 174.1717 85.46872 173.6175 84.72185 172.5625 C 84.40292 172.1119 84.02517 171.5846 83.8824 171.3905 C 83.73964 171.1965 83.45499 170.788 83.24985 170.4828 C 83.0447 170.1776 82.66676 169.6329 82.40996 169.2723 C 82.15316 168.9117 81.83447 168.4579 81.70177 168.2637 C 81.56906 168.0696 81.33041 167.7292 81.17143 167.5073 C 80.61688 166.7333 78.89164 164.2744 78.41151 163.5738 C 78.14541 163.1855 77.76468 162.6409 77.56543 162.3635 C 77.36618 162.0862 77.08089 161.6782 76.93144 161.4568 C 76.18316 160.3487 74.87391 158.4926 74.63261 158.1978 C 74.41618 157.9334 74.29729 157.871 74.05588 157.8952 C 73.76476 157.9245 73.688 158.0528 72.25816 160.9011 C 71.43667 162.5375 70.55521 164.3076 70.29936 164.8345 C 70.04351 165.3615 69.77032 165.9062 69.69226 166.0448 C 69.58345 166.2381 66.98804 171.4301 66.03696 173.3571 C 64.77551 175.9128 64.44775 176.3539 63.4611 176.824 C 62.77551 177.1506 62.01811 177.2482 61.05312 177.1344 Z" fill="#000000" fill-opacity="1" stroke="#FF0000" stroke-opacity="1" stroke-width="0.1" stroke-linecap="round" stroke-linejoin="round"/>
<path d="M 222.0322 253.9552 C 218.2236 248.9039 216.0424 245.1633 214.6991 243.0113 C 209.2946 234.3531 207.2377 226.3799 206.857 224.6462 C 206.8119 224.4411 205.5211 217.4626 207.0838 212.8378 C 209.2 206.5746 214.5127 203.6605 216.1668 202.9848 C 220.1418 201.3611 224.771 201.0151 230.7695 204.002 C 236.2287 206.7203 239.2832 210.3642 241.452 213.4986 C 249.5659 202.4146 256.6517 200.405 260.3129 200.5216 C 266.4722 200.7177 272.9464 205.3415 274.7162 212.9035 C 274.8925 213.6569 278.2656 223.4239 269.6948 241.4825 C 268.8528 243.2567 267.4767 246.718 261.7048 255.0917 C 257.3641 261.3892 252.6574 265.91 251.1519 267.2288 C 245.6588 272.0405 244.5259 272.0649 242.7555 272.1303 C 241.0897 272.1918 237.7548 272.3495 228.3084 261.6299 C 225.8307 258.8182 223.7633 256.2513 222.0322 253.9552 Z" fill="#F6B5BD" fill-opacity="1" stroke="#FF0000" stroke-opacity="1" stroke-width="0.1" stroke-linecap="round" stroke-linejoin="round"/>
<path d="M 241.571 265.3958 C 241.0711 265.1411 238.5274 263.1173 237.6619 262.2856 C 235.81 260.5062 233.6779 258.2996 232.8102 257.2643 C 232.6242 257.0424 232.2659 256.632 232.014 256.3523 C 231.7621 256.0727 231.3743 255.6234 231.1523 255.3539 C 230.9303 255.0845 230.611 254.7006 230.4427 254.5008 C 230.2744 254.3011 229.8693 253.7972 229.5424 253.3812 C 229.2155 252.9651 228.8763 252.5559 228.7887 252.4718 C 228.7011 252.3876 228.4566 252.0629 228.2454 251.7502 C 228.0342 251.4376 227.7156 251.0299 227.5374 250.8442 C 227.3592 250.6586 227.0465 250.2534 226.8424 249.9437 C 226.6384 249.6341 226.3326 249.2321 226.1629 249.0506 C 225.9931 248.869 225.8543 248.7026 225.8543 248.6809 C 225.8543 248.6085 225.1012 247.5824 225.023 247.5482 C 224.9807 247.5298 224.9461 247.4646 224.9461 247.4034 C 224.9461 247.3423 224.8595 247.1986 224.7536 247.0841 C 224.6478 246.9696 224.2203 246.3539 223.8037 245.716 C 223.3871 245.078 222.9742 244.4767 222.8861 244.3796 C 222.798 244.2825 222.7259 244.1734 222.7259 244.137 C 222.7259 244.1006 222.6124 243.9221 222.4737 243.7403 C 222.3349 243.5585 222.2213 243.3755 222.2213 243.3338 C 222.2213 243.2921 221.9346 242.8238 221.5842 242.2933 C 220.7379 241.012 220.5956 240.7869 220.3695 240.3705 C 220.2641 240.1764 220.029 239.7906 219.8471 239.5132 C 219.6651 239.2359 219.3818 238.7593 219.2174 238.4542 C 218.727 237.5441 218.472 237.1 218.3625 236.9653 C 218.2266 236.7982 218.0516 236.4688 217.3438 235.0473 C 217.0201 234.3971 216.7122 233.7971 216.6597 233.7139 C 216.6072 233.6307 216.5359 233.4769 216.5013 233.3721 C 216.4667 233.2673 216.3318 232.9813 216.2015 232.7364 C 216.0712 232.4915 215.9646 232.2398 215.9646 232.1771 C 215.9646 232.1143 215.8788 231.8784 215.774 231.6529 C 215.3028 230.6396 215.0564 230.0491 215.0564 229.9331 C 215.0564 229.8641 214.9651 229.6916 214.8535 229.5497 C 214.7419 229.4079 214.6068 229.0614 214.5533 228.7798 C 214.4999 228.4981 214.3869 228.1337 214.3022 227.97 C 214.2175 227.8063 214.1482 227.5937 214.1482 227.4975 C 214.1482 227.4013 214.0624 227.1381 213.9577 226.9126 C 213.8529 226.687 213.7133 226.2762 213.6475 225.9995 C 213.5816 225.7229 213.4896 225.4506 213.4431 225.3944 C 213.3475 225.2792 212.9857 223.9167 212.7842 222.9131 C 212.7108 222.5475 212.5945 221.1736 212.5258 219.8598 C 212.369 216.8623 212.4572 216.027 213.107 214.3609 C 213.2451 214.0068 213.4023 213.6664 213.4564 213.6044 C 213.5104 213.5425 213.6541 213.3359 213.7757 213.1454 C 213.9968 212.799 214.1424 212.5843 214.4787 212.1086 C 214.7511 211.7234 215.9572 210.5014 216.4747 210.0863 C 217.4128 209.3339 218.7743 208.7792 220.6572 208.3822 C 222.1367 208.0702 225.5874 208.9189 227.8004 210.139 C 228.1769 210.3466 228.5175 210.5165 228.5572 210.5166 C 228.5969 210.5167 228.8792 210.6899 229.1845 210.9014 C 229.4897 211.113 229.9771 211.4493 230.2674 211.6487 C 230.5578 211.8481 230.8586 212.0721 230.9359 212.1464 C 231.0131 212.2207 231.2944 212.4631 231.561 212.685 C 232.1581 213.182 232.599 213.6151 233.3066 214.3995 C 234.2706 215.4684 234.3813 215.6003 234.787 216.1646 C 235.0064 216.4697 235.2219 216.7647 235.266 216.8201 C 235.4608 217.0652 236.4894 218.6777 236.7136 219.0894 C 236.8495 219.3391 237.0984 219.7929 237.2667 220.098 C 237.9055 221.2558 238.4696 222.4085 238.9696 223.5776 C 239.2542 224.2433 239.5595 224.9468 239.648 225.1409 C 239.7364 225.3351 239.8684 225.6754 239.9413 225.8973 C 240.2746 226.912 240.3723 227.1086 240.557 227.1372 C 240.6926 227.1581 240.8008 227.0565 240.9291 226.7875 C 241.0286 226.5789 241.1969 226.3475 241.303 226.2732 C 241.4092 226.1989 241.4961 226.0927 241.4961 226.0372 C 241.4961 225.8884 242.7565 223.2657 243.2977 222.2884 C 243.4446 222.0231 243.7237 221.5012 243.918 221.1285 C 244.1122 220.7559 244.4352 220.2232 244.6357 219.9447 C 244.8361 219.6662 245.1445 219.1897 245.321 218.8857 C 245.4974 218.5817 245.7258 218.2195 245.8285 218.0808 C 246.4967 217.1791 247.2113 216.1898 247.2978 216.0469 C 247.6429 215.4769 249.3018 213.5909 250.5054 212.4004 C 252.9299 210.0022 253.9159 209.2918 256.8351 207.8399 C 257.4845 207.5169 259.5685 207.0185 259.7643 207.1394 C 259.816 207.1714 260.353 207.2625 260.9575 207.3419 C 261.9146 207.4675 262.1497 207.539 262.7788 207.8952 C 264.1302 208.6606 265.991 210.3092 266.422 211.123 C 266.5052 211.2802 266.7209 211.6699 266.9013 211.9891 C 267.0817 212.3083 267.2295 212.6181 267.2297 212.6776 C 267.2299 212.7371 267.3244 212.9405 267.4398 213.1297 C 267.6434 213.4634 268.017 215.0792 268.2232 216.5175 C 268.5384 218.7163 268.5695 219.2596 268.4575 220.6114 C 268.3207 222.2603 268.0775 224.33 267.9961 224.5358 C 267.9632 224.619 267.8495 225.1636 267.7432 225.7461 C 267.527 226.9315 267.4174 227.3646 266.8754 229.1752 C 266.6678 229.8686 266.4565 230.6175 266.4059 230.8394 C 266.3552 231.0613 266.2266 231.4698 266.1201 231.7471 C 266.0136 232.0245 265.8077 232.5691 265.6626 232.9574 C 265.5175 233.3457 265.3388 233.7996 265.2656 233.966 C 265.1924 234.1324 265.1019 234.382 265.0643 234.5207 C 264.9738 234.8554 264.5726 235.7939 264.0896 236.8015 C 263.8738 237.2515 263.6973 237.6499 263.6973 237.6868 C 263.6973 237.783 263.0981 239.0477 262.1153 241.0261 C 261.1794 242.9098 261.0716 243.1116 260.6069 243.8501 C 260.4323 244.1275 260.2214 244.5176 260.1381 244.7171 C 260.0548 244.9166 259.8324 245.3024 259.6438 245.5744 C 259.4553 245.8464 259.1087 246.3867 258.8737 246.775 C 258.2703 247.7718 258.2038 247.8781 258.147 247.9349 C 258.1192 247.9626 257.7466 248.5072 257.3189 249.1452 C 256.8912 249.7831 256.3797 250.532 256.1822 250.8093 C 255.9848 251.0867 255.6563 251.5632 255.4522 251.8683 C 255.2482 252.1734 255.0104 252.4969 254.9238 252.5872 C 254.6831 252.8381 254.4929 253.0822 254.1087 253.6334 C 253.8127 254.0581 252.6953 255.4931 252.2668 255.9988 C 252.1984 256.0794 251.8995 256.4426 251.6024 256.8057 C 250.9791 257.5676 249.7783 258.8854 248.466 260.2477 C 247.3575 261.3984 247.5032 261.2562 246.9007 261.776 C 246.6263 262.0126 246.1461 262.4332 245.8337 262.7106 C 245.0273 263.4264 244.3268 264.0064 244.1382 264.1143 C 244.0492 264.1652 243.8383 264.3308 243.6696 264.4822 C 243.0953 264.9979 242.4449 265.4521 242.1889 265.5163 C 242.0284 265.5566 241.7986 265.5117 241.571 265.3958 Z M 265.3162 219.883 C 265.3006 220.8926 265.1953 222.1011 264.9407 223.6126 C 263.6173 231.4698 259.1359 240.4761 256.6052 244.4142 C 249.1352 256.0381 244.2666 260.1112 241.9741 261.7602 C 236.5267 257.4819 230.24 249.2353 229.424 248.0955 C 225.9139 243.1928 219.7236 234.6059 217.2211 226.6588 C 216.8274 225.4085 215.1437 221.5077 215.6729 216.9506 C 215.9015 214.9822 218.0641 211.8108 221.2822 211.4989 C 221.7813 211.4505 225.2807 211.7909 228.7704 214.4811 C 229.8912 215.3452 232.8571 217.8325 235.6962 224.0271 C 236.8359 226.5139 237.2312 227.7904 237.3679 228.0932 C 237.8373 229.1326 237.2846 228.2256 237.9135 229.0127 C 237.951 229.0596 238.4052 229.6793 239.2558 230.0421 C 242.0176 231.2202 243.5362 228.6252 243.9205 228.1292 C 244.4512 227.4442 246.6774 221.6046 250.6024 216.9797 C 258.7184 207.4164 261.7878 211.0275 261.9704 211.1624 C 263.1067 212.002 264.3369 212.8873 264.9209 216.0121 C 265.1187 217.0705 265.3421 218.2004 265.3162 219.883 Z" fill="#000000" fill-opacity="1" stroke="#FF0000" stroke-opacity="1" stroke-width="0.1" stroke-linecap="round" stroke-linejoin="round"/>
<path d="M 48.76797 82.50529 C 44.95944 77.45392 42.7782 73.71338 41.43494 71.56137 C 36.03043 62.9031 33.97351 54.92997 33.5928 53.19622 C 33.54776 52.99114 32.25696 46.0127 33.81958 41.38788 C 35.93579 35.12463 41.24854 32.21059 42.90265 31.5349 C 46.87762 29.91116 51.50681 29.56517 57.50528 32.55202 C 62.96448 35.27036 66.01901 38.91428 68.18787 42.04865 C 76.3017 30.96469 83.38753 28.95506 87.04866 29.07162 C 93.20802 29.26772 99.68214 33.89153 101.452 41.45357 C 101.6283 42.20699 105.0014 51.97391 96.43062 70.03258 C 95.58858 71.80679 94.21248 75.26808 88.44063 83.64177 C 84.09995 89.93921 79.39325 94.46001 77.8877 95.77882 C 72.39459 100.5906 71.26175 100.6149 69.49133 100.6803 C 67.82553 100.7419 64.49066 100.8996 55.04422 90.17995 C 52.5665 87.36829 50.49915 84.80138 48.76797 82.50529 Z" fill="#F6B5BD" fill-opacity="1" stroke="#FF0000" stroke-opacity="1" stroke-width="0.1" stroke-linecap="round" stroke-linejoin="round"/>
<path d="M 68.30688 93.94588 C 67.80696 93.69115 65.26332 91.66735 64.39777 90.83566 C 62.54587 89.05624 60.41377 86.84962 59.54605 85.81432 C 59.36008 85.59243 59.0018 85.18208 58.74988 84.90242 C 58.49796 84.62276 58.11018 84.17348 57.88818 83.90402 C 57.66618 83.63456 57.34683 83.25066 57.17856 83.0509 C 57.01028 82.85115 56.60515 82.34731 56.27826 81.93127 C 55.95137 81.51524 55.61221 81.106 55.5246 81.02184 C 55.43698 80.93768 55.1925 80.61299 54.98129 80.30032 C 54.77008 79.98765 54.45145 79.57994 54.27325 79.39432 C 54.09505 79.20869 53.78235 78.80346 53.57831 78.49379 C 53.37427 78.18413 53.06845 77.78221 52.89874 77.60063 C 52.72902 77.41904 52.59015 77.25269 52.59015 77.23094 C 52.59015 77.15855 51.8371 76.13248 51.75888 76.09831 C 51.71655 76.07983 51.68195 76.01466 51.68195 75.95352 C 51.68195 75.89238 51.59534 75.74866 51.4895 75.63414 C 51.38367 75.51962 50.95619 74.90398 50.53958 74.26605 C 50.12297 73.62812 49.71002 73.02676 49.62195 72.92969 C 49.53386 72.83261 49.46179 72.72343 49.46179 72.68706 C 49.46179 72.65069 49.3483 72.47218 49.20953 72.29036 C 49.07077 72.10854 48.95721 71.92563 48.95721 71.88388 C 48.95721 71.84213 48.67052 71.37389 48.32007 70.84335 C 47.47374 69.56206 47.3315 69.33694 47.10541 68.92058 C 46.99997 68.72643 46.76486 68.34064 46.58295 68.06328 C 46.40102 67.78592 46.11768 67.30936 45.95328 67.00427 C 45.46289 66.09414 45.20792 65.65012 45.09836 65.51541 C 44.96246 65.34832 44.78749 65.01887 44.07971 63.59741 C 43.75595 62.9472 43.4481 62.34714 43.3956 62.26393 C 43.34309 62.18073 43.2718 62.02692 43.23718 61.92216 C 43.20256 61.8174 43.06764 61.53134 42.93738 61.28647 C 42.8071 61.0416 42.7005 60.7899 42.7005 60.72714 C 42.7005 60.66438 42.61473 60.4285 42.50986 60.20297 C 42.0387 59.18968 41.7923 58.59912 41.7923 58.48317 C 41.7923 58.41415 41.70097 58.24163 41.58936 58.09981 C 41.47774 57.95799 41.34267 57.6115 41.28922 57.32983 C 41.23578 57.04817 41.12276 56.68379 41.03806 56.5201 C 40.95335 56.3564 40.88406 56.14376 40.88406 56.04758 C 40.88406 55.95139 40.79831 55.68818 40.69354 55.46265 C 40.58878 55.23711 40.4492 54.82624 40.38336 54.54962 C 40.31752 54.273 40.22551 54.0007 40.17892 53.94449 C 40.08342 53.82926 39.72163 52.46674 39.52008 51.46313 C 39.44667 51.09763 39.33038 49.72369 39.26166 48.40991 C 39.10483 45.41235 39.19312 44.57702 39.84283 42.91093 C 39.98093 42.55684 40.13817 42.21644 40.19223 42.1545 C 40.24629 42.09255 40.39 41.88599 40.5116 41.69547 C 40.73268 41.34904 40.87827 41.13436 41.2146 40.65869 C 41.48701 40.27343 42.69307 39.05143 43.21054 38.63638 C 44.14862 37.88398 45.51016 37.32923 47.39307 36.93222 C 48.87253 36.62028 52.32327 37.46899 54.53625 38.68909 C 54.91281 38.89669 55.25337 39.06661 55.29309 39.06668 C 55.33281 39.06675 55.61508 39.23992 55.92035 39.45149 C 56.22562 39.66306 56.71294 39.99932 57.0033 40.19873 C 57.29366 40.39814 57.59448 40.62212 57.67175 40.69644 C 57.74901 40.77077 58.0303 41.01313 58.29688 41.23502 C 58.89394 41.73202 59.33492 42.16516 60.04245 42.94958 C 61.00652 44.01844 61.11716 44.15035 61.52289 44.71461 C 61.74226 45.01971 61.95781 45.31472 62.00189 45.37019 C 62.19666 45.61523 63.22533 47.22779 63.44946 47.6395 C 63.58537 47.88912 63.83427 48.34299 64.00259 48.64809 C 64.64139 49.80592 65.20549 50.95858 65.70544 52.12769 C 65.99011 52.79335 66.29539 53.49685 66.38385 53.69099 C 66.47231 53.88514 66.60428 54.22553 66.67719 54.44742 C 67.0105 55.46205 67.10815 55.65871 67.29291 55.68724 C 67.4285 55.70818 67.53662 55.60658 67.66498 55.33755 C 67.7645 55.129 67.93275 54.89758 68.03891 54.82326 C 68.14507 54.74894 68.23193 54.64275 68.23193 54.58728 C 68.23193 54.43847 69.49236 51.81581 70.03357 50.83849 C 70.18048 50.5732 70.45961 50.05126 70.65387 49.67862 C 70.84813 49.30598 71.17107 48.77324 71.37152 48.49477 C 71.57199 48.21629 71.8804 47.73974 72.05682 47.43576 C 72.23325 47.13178 72.46165 46.7696 72.56439 46.63092 C 73.23256 45.72918 73.94722 44.73991 74.03369 44.597 C 74.37874 44.02697 76.03769 42.14098 77.24127 40.95047 C 79.66576 38.55226 80.65179 37.84184 83.57095 36.38995 C 84.22043 36.06693 86.30441 35.56856 86.50012 35.68945 C 86.55191 35.72144 87.08887 35.81255 87.69336 35.89192 C 88.65051 36.01761 88.88562 36.08905 89.51465 36.4453 C 90.86603 37.21064 92.72684 38.85925 93.15787 39.67305 C 93.24112 39.83024 93.45679 40.22001 93.63718 40.5392 C 93.81757 40.85839 93.96536 41.16822 93.96555 41.22771 C 93.96576 41.2872 94.0603 41.49061 94.17569 41.67975 C 94.37924 42.01346 94.75287 43.6293 94.95908 45.06763 C 95.27429 47.26639 95.30539 47.80962 95.19333 49.16145 C 95.05661 50.81038 94.81332 52.88008 94.73199 53.08585 C 94.6991 53.16906 94.58533 53.71369 94.4791 54.29614 C 94.26291 55.48163 94.15329 55.91472 93.61124 57.72531 C 93.40366 58.41871 93.19238 59.16759 93.14175 59.38948 C 93.09109 59.61137 92.96249 60.01985 92.85599 60.29721 C 92.74945 60.57457 92.54358 61.11919 92.39847 61.50749 C 92.25333 61.8958 92.07471 62.34967 92.0015 62.51608 C 91.92828 62.6825 91.83774 62.93212 91.8002 63.0708 C 91.70963 63.40544 91.3085 64.34401 90.82547 65.35152 C 90.60971 65.80157 90.43314 66.19998 90.43314 66.23689 C 90.43314 66.33306 89.83395 67.59778 88.85114 69.57616 C 87.91531 71.45986 87.8075 71.66168 87.34274 72.40018 C 87.16818 72.67754 86.95724 73.06769 86.87396 73.26718 C 86.79068 73.46667 86.56827 73.85246 86.3797 74.12448 C 86.19113 74.3965 85.8446 74.93677 85.60956 75.32507 C 85.0062 76.32191 84.93964 76.42819 84.88284 76.48494 C 84.8551 76.51267 84.48245 77.0573 84.05475 77.69524 C 83.62704 78.33317 83.11554 79.08203 82.91809 79.35939 C 82.72064 79.63675 82.39212 80.11331 82.18811 80.41841 C 81.98407 80.72351 81.74626 81.04698 81.65967 81.13725 C 81.41899 81.38815 81.22878 81.63229 80.8446 82.18343 C 80.54854 82.60814 79.43112 84.04314 79.00262 84.54889 C 78.93431 84.62952 78.63536 84.99261 78.33826 85.35576 C 77.71498 86.11765 76.51414 87.4355 75.2019 88.79776 C 74.0934 89.94852 74.23909 89.80628 73.63654 90.32603 C 73.36215 90.56271 72.88203 90.98329 72.56958 91.26065 C 71.76317 91.97651 71.06265 92.55647 70.87402 92.66438 C 70.78503 92.7153 70.57419 92.88087 70.40552 93.03232 C 69.83122 93.54798 69.18083 94.00218 68.92474 94.06642 C 68.76427 94.10667 68.53445 94.06184 68.30688 93.94588 Z M 92.05206 48.43307 C 92.0365 49.44264 91.93112 50.6512 91.67654 52.16269 C 90.35318 60.01984 85.8718 69.02621 83.34106 72.96423 C 75.87106 84.58815 71.0025 88.66127 68.70999 90.31026 C 63.26254 86.03201 56.97589 77.78532 56.15985 76.64552 C 52.64978 71.7429 46.4595 63.15598 43.95694 55.20886 C 43.56323 53.9586 41.87961 50.05777 42.40878 45.50066 C 42.63736 43.53229 44.79999 40.36082 48.01804 40.04892 C 48.51721 40.00053 52.01657 40.34094 55.50626 43.03114 C 56.62711 43.89522 59.59302 46.38255 62.43204 52.57713 C 63.57175 55.06392 63.96707 56.3405 64.10379 56.64323 C 64.57315 57.68263 64.02051 56.77573 64.64935 57.56274 C 64.68689 57.60973 65.14108 58.22937 65.99167 58.59218 C 68.75351 59.77022 70.27209 57.17526 70.65634 56.67929 C 71.18707 55.99426 73.41327 50.15472 77.33826 45.52979 C 85.45422 35.96649 88.52365 39.57759 88.70624 39.71249 C 89.84259 40.55206 91.07272 41.43732 91.65674 44.56215 C 91.85455 45.62056 92.078 46.75046 92.05206 48.43307 Z" fill="#000000" fill-opacity="1" stroke="#FF0000" stroke-opacity="1" stroke-width="0.1" stroke-linecap="round" stroke-linejoin="round"/>
<path d="M 233.8638 92.31654 C 233.0099 92.21581 232.0504 91.58215 231.5631 90.79718 C 231.3898 90.5181 231.2066 90.00035 231.1051 89.50307 C 230.9467 88.72665 230.9467 88.62518 231.1062 87.90068 C 231.1998 87.47527 231.3301 87.05911 231.3957 86.97591 C 231.4613 86.8927 231.7572 86.32537 232.0533 85.71518 C 232.8117 84.15215 233.1746 83.41938 233.277 83.24416 C 233.3257 83.16095 234.3039 81.18665 235.4509 78.85683 C 237.7644 74.15757 239.3399 70.98804 239.5131 70.6848 C 239.5757 70.57524 239.9904 69.73673 240.4347 68.82144 C 240.879 67.90615 241.2855 67.08919 241.338 67.00598 C 241.5693 66.63926 241.8512 65.91306 241.8496 65.6882 C 241.8486 65.55317 241.6252 65.12498 241.3531 64.73668 C 241.081 64.34837 240.5585 63.59951 240.192 63.07253 C 239.8254 62.54554 239.1848 61.63782 238.7684 61.05536 C 238.352 60.4729 237.8112 59.70134 237.5665 59.34076 C 237.3219 58.98019 236.9712 58.47463 236.7871 58.21727 C 236.603 57.95992 236.0437 57.17437 235.5442 56.47161 C 235.0447 55.76886 234.4199 54.89015 234.1557 54.51894 C 233.6601 53.82236 233.1651 53.11338 232.3816 51.97812 C 232.1328 51.61755 231.7991 51.14101 231.64 50.91912 C 231.481 50.69723 231.1486 50.22067 230.9013 49.8601 C 230.654 49.49953 230.3199 49.02298 230.1589 48.80109 C 229.9978 48.5792 229.4368 47.78495 228.9121 47.03608 C 227.665 45.25603 227.2919 44.72626 226.6178 43.77784 C 226.31 43.34488 225.9117 42.70947 225.7326 42.36583 C 225.4281 41.78164 225.4067 41.67371 225.4046 40.7057 C 225.4024 39.73828 225.4223 39.63501 225.7068 39.13119 C 226.0946 38.44431 226.7267 37.81334 227.3701 37.47094 C 227.8413 37.22017 227.9559 37.2031 229.1022 37.21297 C 230.2294 37.22267 230.3656 37.24472 230.7673 37.48261 C 231.3208 37.81036 232.1153 38.62671 232.7031 39.47171 C 233.6476 40.82954 234.5237 42.08547 235.423 43.37077 C 235.9337 44.10072 236.5978 45.05383 236.8989 45.48879 C 237.1999 45.92376 237.6309 46.52926 237.8566 46.83436 C 238.0822 47.13945 238.4353 47.6387 238.6413 47.9438 C 238.8472 48.24889 239.1795 48.72545 239.3797 49.00281 C 239.5799 49.28017 239.8656 49.68864 240.0144 49.91053 C 240.1633 50.13242 240.5826 50.72244 240.9462 51.22169 C 241.3099 51.72094 241.7557 52.35118 241.9371 52.62222 C 242.244 53.08099 242.9008 54.03008 243.655 55.10473 C 243.8302 55.35435 244.2761 56.00226 244.6459 56.54452 C 245.3644 57.59824 245.6913 57.82971 245.9539 57.47079 C 246.0284 57.36896 247.2983 54.85469 248.7759 51.8835 C 250.2535 48.91232 251.6175 46.18635 251.8069 45.82578 C 251.9962 45.46521 252.3356 44.78442 252.5611 44.3129 C 252.9917 43.41208 253.6225 42.15172 253.8987 41.64016 C 253.9886 41.47375 255.3699 38.70519 256.9684 35.48781 C 258.567 32.27044 260.022 29.43575 260.2019 29.1885 C 260.5729 28.67855 260.84 28.47588 261.6306 28.1046 C 262.0959 27.88611 262.3326 27.84336 263.0939 27.84025 C 263.8799 27.83704 264.0795 27.87358 264.5769 28.11181 C 265.3871 28.49983 266.0966 29.16976 266.3771 29.81157 C 266.5757 30.266 266.6108 30.52145 266.6168 31.55434 L 266.6237 32.76464 L 266.0802 33.82365 C 265.5943 34.77048 261.8314 42.25627 261.5802 42.77598 C 261.2138 43.53399 260.1793 45.62576 260.047 45.87621 C 259.9591 46.04262 258.8697 48.22116 257.626 50.7174 C 256.3824 53.21363 255.3136 55.34679 255.251 55.45773 C 255.1884 55.56868 254.8701 56.20408 254.5438 56.86975 C 254.2175 57.53541 253.6464 58.69392 253.2746 59.44422 C 252.9029 60.19451 252.5497 60.92068 252.4898 61.05794 C 252.3835 61.30136 251.7218 62.56903 251.5435 62.87081 C 251.2034 63.4465 250.8103 64.47652 250.8145 64.78082 C 250.8212 65.26759 250.9394 65.54766 251.4013 66.17114 C 251.6159 66.46085 251.9883 66.98279 252.229 67.33101 C 252.4696 67.67923 253.2098 68.7357 253.8738 69.67873 C 254.5378 70.62175 255.189 71.55217 255.321 71.74632 C 255.4531 71.94048 255.7701 72.39433 256.0255 72.7549 C 256.281 73.11547 256.7125 73.72818 256.9845 74.11649 C 257.2565 74.50478 257.7061 75.14021 257.9837 75.5285 C 258.2613 75.9168 258.798 76.68588 259.1765 77.23755 C 259.555 77.78922 259.9432 78.33385 260.0392 78.44785 C 260.205 78.6448 261.1212 79.96018 261.8843 81.09673 C 262.0782 81.38564 262.5433 82.04482 262.9177 82.56157 C 264.5045 84.75146 264.7951 85.52054 264.5739 86.94298 C 264.3608 88.31264 263.8124 89.09298 262.665 89.65926 C 262.1362 89.92022 261.9908 89.94521 261.0251 89.94093 C 260.0905 89.9368 259.9061 89.90566 259.461 89.67688 C 258.8325 89.35382 258.2794 88.79966 257.5326 87.74461 C 257.2136 87.29409 256.8359 86.76671 256.6931 86.57266 C 256.5504 86.37862 256.2657 85.97015 256.0605 85.66495 C 255.8554 85.35974 255.4775 84.81503 255.2207 84.45445 C 254.9639 84.09388 254.6452 83.64003 254.5125 83.44588 C 254.3798 83.25172 254.1411 82.91132 253.9821 82.68944 C 253.4276 81.91544 251.7024 79.4566 251.2222 78.75597 C 250.9561 78.36767 250.5754 77.82303 250.3761 77.54567 C 250.1769 77.26831 249.8916 76.86031 249.7422 76.63899 C 248.9939 75.53088 247.6846 73.67478 247.4433 73.37996 C 247.2269 73.11553 247.108 73.05317 246.8666 73.07739 C 246.5755 73.10661 246.4987 73.23495 245.0689 76.08322 C 244.2474 77.71964 243.3659 79.48971 243.1101 80.01669 C 242.8542 80.54368 242.581 81.08831 242.503 81.22699 C 242.3942 81.42027 239.7987 86.61227 238.8477 88.5392 C 237.5862 91.09494 237.2585 91.53607 236.2718 92.00612 C 235.5862 92.33274 234.8288 92.43038 233.8638 92.31654 Z" fill="#000000" fill-opacity="1" stroke="#FF0000" stroke-opacity="1" stroke-width="0.1" stroke-linecap="round" stroke-linejoin="round"/>
<path d="M 138.1216 168.6838 C 134.3131 163.6325 132.1318 159.8919 130.7886 157.7399 C 125.3841 149.0816 123.3271 141.1085 122.9465 139.3748 C 122.9014 139.1697 121.6106 132.1912 123.1732 127.5664 C 125.2894 121.3032 130.6022 118.3891 132.2563 117.7134 C 136.2312 116.0897 140.8605 115.7437 146.8589 118.7306 C 152.3181 121.4489 155.3727 125.0928 157.5415 128.2272 C 165.6553 117.1432 172.7411 115.1336 176.4023 115.2502 C 182.5616 115.4463 189.0358 120.0701 190.8056 127.6321 C 190.9819 128.3855 194.355 138.1525 185.7843 156.2111 C 184.9422 157.9853 183.5661 161.4466 177.7943 169.8203 C 173.4536 176.1178 168.7469 180.6385 167.2413 181.9574 C 161.7482 186.7691 160.6154 186.7935 158.845 186.8589 C 157.1792 186.9205 153.8443 187.0781 144.3979 176.3585 C 141.9202 173.5468 139.8528 170.9799 138.1216 168.6838 Z" fill="#F6B5BD" fill-opacity="1" stroke="#FF0000" stroke-opacity="1" stroke-width="0.1" stroke-linecap="round" stroke-linejoin="round"/>
<path d="M 157.6604 180.1244 C 157.1605 179.8697 154.6169 177.8459 153.7513 177.0142 C 151.8994 175.2348 149.7673 173.0281 148.8996 171.9928 C 148.7136 171.771 148.3553 171.3606 148.1034 171.0809 C 147.8515 170.8013 147.4637 170.352 147.2417 170.0825 C 147.0197 169.8131 146.7004 169.4292 146.5321 169.2294 C 146.3638 169.0297 145.9587 168.5258 145.6318 168.1098 C 145.3049 167.6938 144.9658 167.2845 144.8781 167.2004 C 144.7905 167.1162 144.5461 166.7915 144.3348 166.4788 C 144.1236 166.1662 143.805 165.7585 143.6268 165.5728 C 143.4486 165.3872 143.1359 164.982 142.9319 164.6723 C 142.7278 164.3627 142.422 163.9607 142.2523 163.7792 C 142.0826 163.5976 141.9437 163.4312 141.9437 163.4095 C 141.9437 163.3371 141.1906 162.311 141.1124 162.2768 C 141.0701 162.2583 141.0355 162.1932 141.0355 162.132 C 141.0355 162.0709 140.9489 161.9272 140.843 161.8127 C 140.7372 161.6981 140.3098 161.0825 139.8931 160.4446 C 139.4765 159.8066 139.0636 159.2053 138.9755 159.1082 C 138.8874 159.0111 138.8153 158.9019 138.8153 158.8656 C 138.8153 158.8292 138.7018 158.6507 138.5631 158.4689 C 138.4243 158.2871 138.3108 158.1041 138.3108 158.0624 C 138.3108 158.0206 138.024 157.5524 137.6736 157.0219 C 136.8273 155.7406 136.6851 155.5155 136.459 155.0991 C 136.3535 154.905 136.1184 154.5191 135.9365 154.2418 C 135.7546 153.9644 135.4712 153.4879 135.3068 153.1828 C 134.8164 152.2727 134.5615 151.8286 134.4519 151.6939 C 134.316 151.5268 134.1411 151.1974 133.4333 149.7759 C 133.1095 149.1257 132.8016 148.5257 132.7491 148.4425 C 132.6967 148.3592 132.6254 148.2054 132.5907 148.1007 C 132.5561 147.9959 132.4212 147.7099 132.2909 147.465 C 132.1606 147.2201 132.054 146.9684 132.054 146.9057 C 132.054 146.8429 131.9683 146.607 131.8634 146.3815 C 131.3922 145.3682 131.1458 144.7776 131.1458 144.6617 C 131.1458 144.5927 131.0545 144.4202 130.9429 144.2783 C 130.8313 144.1365 130.6962 143.79 130.6428 143.5083 C 130.5893 143.2267 130.4763 142.8623 130.3916 142.6986 C 130.3069 142.5349 130.2376 142.3223 130.2376 142.2261 C 130.2376 142.1299 130.1519 141.8667 130.0471 141.6412 C 129.9423 141.4156 129.8027 141.0048 129.7369 140.7281 C 129.6711 140.4515 129.579 140.1792 129.5325 140.123 C 129.437 140.0078 129.0752 138.6453 128.8736 137.6416 C 128.8002 137.2762 128.6839 135.9022 128.6152 134.5884 C 128.4584 131.5909 128.5467 130.7555 129.1964 129.0895 C 129.3345 128.7354 129.4917 128.395 129.5458 128.333 C 129.5999 128.2711 129.7435 128.0645 129.8651 127.874 C 130.0862 127.5276 130.2318 127.3129 130.5681 126.8372 C 130.8406 126.452 132.0466 125.2299 132.5641 124.8149 C 133.5022 124.0625 134.8637 123.5078 136.7466 123.1107 C 138.2261 122.7988 141.6768 123.6475 143.8898 124.8676 C 144.2664 125.0752 144.6069 125.2451 144.6466 125.2452 C 144.6863 125.2453 144.9686 125.4184 145.2739 125.63 C 145.5792 125.8416 146.0665 126.1778 146.3568 126.3773 C 146.6472 126.5767 146.948 126.8006 147.0253 126.875 C 147.1025 126.9493 147.3839 127.1917 147.6504 127.4135 C 148.2475 127.9105 148.6885 128.3437 149.396 129.1281 C 150.36 130.197 150.4707 130.3289 150.8764 130.8931 C 151.0958 131.1982 151.3113 131.4932 151.3554 131.5487 C 151.5502 131.7937 152.5789 133.4063 152.803 133.818 C 152.9389 134.0676 153.1878 134.5215 153.3561 134.8266 C 153.9949 135.9844 154.559 137.1371 155.059 138.3062 C 155.3437 138.9719 155.6489 139.6754 155.7374 139.8695 C 155.8259 140.0637 155.9578 140.4041 156.0307 140.6259 C 156.364 141.6406 156.4617 141.8372 156.6465 141.8658 C 156.782 141.8867 156.8902 141.7851 157.0185 141.5161 C 157.118 141.3075 157.2863 141.0761 157.3925 141.0018 C 157.4986 140.9275 157.5855 140.8213 157.5855 140.7658 C 157.5855 140.617 158.8459 137.9943 159.3871 137.017 C 159.534 136.7517 159.8132 136.2298 160.0074 135.8571 C 160.2017 135.4845 160.5246 134.9518 160.7251 134.6733 C 160.9255 134.3948 161.2339 133.9183 161.4104 133.6143 C 161.5868 133.3103 161.8152 132.9481 161.9179 132.8094 C 162.5861 131.9077 163.3008 130.9184 163.3872 130.7755 C 163.7323 130.2055 165.3912 128.3195 166.5948 127.129 C 169.0193 124.7308 170.0053 124.0204 172.9245 122.5685 C 173.574 122.2455 175.658 121.7471 175.8537 121.868 C 175.9055 121.9 176.4424 121.9911 177.0469 122.0704 C 178.004 122.1961 178.2391 122.2676 178.8681 122.6238 C 180.2195 123.3892 182.0804 125.0378 182.5114 125.8516 C 182.5947 126.0088 182.8103 126.3985 182.9907 126.7177 C 183.1711 127.0369 183.3189 127.3467 183.3191 127.4062 C 183.3193 127.4657 183.4138 127.6691 183.5292 127.8583 C 183.7328 128.192 184.1064 129.8078 184.3126 131.2461 C 184.6278 133.4449 184.6589 133.9881 184.5469 135.34 C 184.4101 136.9889 184.1669 139.0586 184.0855 139.2644 C 184.0526 139.3476 183.9388 139.8922 183.8326 140.4747 C 183.6164 141.6602 183.5068 142.0932 182.9648 143.9038 C 182.7572 144.5972 182.5459 145.3461 182.4953 145.568 C 182.4446 145.7899 182.316 146.1984 182.2095 146.4757 C 182.103 146.7531 181.8971 147.2977 181.752 147.686 C 181.6069 148.0743 181.4282 148.5282 181.355 148.6946 C 181.2818 148.861 181.1913 149.1106 181.1537 149.2493 C 181.0632 149.584 180.662 150.5225 180.179 151.53 C 179.9632 151.9801 179.7867 152.3785 179.7867 152.4154 C 179.7867 152.5116 179.1875 153.7763 178.2046 155.7547 C 177.2688 157.6384 177.161 157.8402 176.6963 158.5787 C 176.5217 158.8561 176.3108 159.2462 176.2275 159.4457 C 176.1442 159.6452 175.9218 160.031 175.7332 160.303 C 175.5447 160.575 175.1982 161.1153 174.9631 161.5036 C 174.3597 162.5004 174.2932 162.6067 174.2364 162.6635 C 174.2086 162.6912 173.836 163.2358 173.4083 163.8738 C 172.9806 164.5117 172.4691 165.2605 172.2716 165.5379 C 172.0742 165.8153 171.7457 166.2918 171.5417 166.5969 C 171.3376 166.902 171.0998 167.2255 171.0132 167.3158 C 170.7725 167.5667 170.5823 167.8108 170.1982 168.362 C 169.9021 168.7867 168.7847 170.2217 168.3562 170.7274 C 168.2878 170.808 167.9889 171.1711 167.6918 171.5343 C 167.0685 172.2962 165.8677 173.614 164.5555 174.9763 C 163.447 176.127 163.5927 175.9848 162.9901 176.5046 C 162.7157 176.7412 162.2356 177.1618 161.9231 177.4392 C 161.1167 178.155 160.4162 178.735 160.2276 178.8429 C 160.1386 178.8938 159.9277 179.0594 159.7591 179.2108 C 159.1848 179.7265 158.5344 180.1807 158.2783 180.2449 C 158.1178 180.2852 157.888 180.2403 157.6604 180.1244 Z M 181.4056 134.6116 C 181.39 135.6212 181.2847 136.8297 181.0301 138.3412 C 179.7067 146.1983 175.2253 155.2047 172.6946 159.1427 C 165.2246 170.7667 160.356 174.8398 158.0635 176.4888 C 152.6161 172.2105 146.3294 163.9639 145.5134 162.8241 C 142.0033 157.9214 135.813 149.3345 133.3105 141.3874 C 132.9168 140.1371 131.2332 136.2363 131.7623 131.6792 C 131.9909 129.7108 134.1535 126.5394 137.3716 126.2274 C 137.8708 126.1791 141.3701 126.5195 144.8598 129.2097 C 145.9807 130.0737 148.9466 132.5611 151.7856 138.7557 C 152.9253 141.2424 153.3206 142.519 153.4573 142.8218 C 153.9267 143.8612 153.3741 142.9542 154.0029 143.7413 C 154.0404 143.7883 154.4946 144.4079 155.3452 144.7707 C 158.1071 145.9487 159.6256 143.3538 160.0099 142.8578 C 160.5406 142.1728 162.7668 136.3332 166.6918 131.7083 C 174.8078 122.145 177.8772 125.7561 178.0597 125.891 C 179.1961 126.7306 180.4263 127.6158 181.0102 130.7407 C 181.2081 131.7991 181.4315 132.929 181.4056 134.6116 Z" fill="#000000" fill-opacity="1" stroke="#FF0000" stroke-opacity="1" stroke-width="0.1" stroke-linecap="round" stroke-linejoin="round"/>
</svg>